<svg width="47" height="40" viewBox="0 0 47 40" fill="none" xmlns="http://www.w3.org/2000/svg">
<g clip-path="url(#clip0_157_7108)">
<path d="M28.471 13.2456C27.7328 12.4042 26.3983 12.0435 24.6912 12.0435H19.7365C19.5675 12.0434 19.4042 12.1037 19.2757 12.2134C19.1472 12.3231 19.0621 12.475 19.0357 12.6418L16.9726 25.7262C16.9316 25.9842 17.1314 26.2178 17.3929 26.2178H20.4518L21.22 21.3452L21.1962 21.4978C21.2509 21.1533 21.5455 20.8993 21.8943 20.8993H23.3478C26.2034 20.8993 28.4393 19.7395 29.0924 16.3843C29.1118 16.285 29.1286 16.1885 29.1431 16.0941C29.0607 16.0505 29.0607 16.0505 29.1431 16.0941C29.3376 14.854 29.1418 14.0099 28.471 13.2456Z" fill="#27346A"/>
<path d="M22.3904 15.6474C22.474 15.6075 22.5655 15.5869 22.6581 15.587H26.5425C27.0025 15.587 27.4316 15.6169 27.8236 15.68C27.9333 15.6975 28.0424 15.7184 28.1509 15.7426C28.3045 15.7765 28.4564 15.818 28.606 15.867C28.7987 15.9314 28.9782 16.0063 29.1432 16.0941C29.3376 14.8535 29.1418 14.0099 28.471 13.2456C27.7324 12.4042 26.3983 12.0435 24.6912 12.0435H19.736C19.3872 12.0435 19.0904 12.2974 19.0357 12.6418L16.9726 25.7257C16.9316 25.9841 17.1314 26.2174 17.3925 26.2174H20.4518L22.0456 16.1104C22.0613 16.0111 22.1009 15.917 22.1609 15.8364C22.221 15.7557 22.2998 15.6909 22.3904 15.6474Z" fill="#27346A"/>
<path d="M29.0914 16.3839C28.4383 19.7386 26.2024 20.8989 23.3468 20.8989H21.8929C21.544 20.8989 21.2494 21.153 21.1952 21.4974L20.2395 27.5559C20.2038 27.7817 20.3784 27.9864 20.6069 27.9864H23.1854C23.3331 27.9863 23.476 27.9336 23.5883 27.8376C23.7006 27.7417 23.7749 27.6088 23.798 27.4629L23.8231 27.3315L24.3091 24.2515L24.3404 24.0812C24.3635 23.9354 24.4379 23.8025 24.5502 23.7065C24.6625 23.6106 24.8053 23.5579 24.953 23.5578H25.3389C27.8368 23.5578 29.7926 22.543 30.3642 19.6081C30.6027 18.3816 30.4793 17.3576 29.8482 16.6384C29.6568 16.4205 29.4191 16.2406 29.1421 16.0938C29.1271 16.1886 29.1109 16.2847 29.0914 16.3839Z" fill="#2790C3"/>
<path d="M28.4588 15.8216C28.357 15.7918 28.2542 15.7655 28.1506 15.7426C28.0421 15.7188 27.933 15.698 27.8233 15.6804C27.4308 15.6169 27.0021 15.5869 26.5417 15.5869H22.6578C22.5651 15.5868 22.4736 15.6076 22.3901 15.6478C22.2993 15.6911 22.2204 15.7559 22.1603 15.8366C22.1002 15.9173 22.0607 16.0114 22.0452 16.1108L21.2196 21.3452L21.1958 21.4978C21.2501 21.1533 21.5447 20.8993 21.8935 20.8993H23.3475C26.2031 20.8993 28.4389 19.7394 29.0921 16.3843C29.1115 16.285 29.1278 16.1889 29.1428 16.0941C28.9775 16.0069 28.7984 15.9313 28.6056 15.8674C28.557 15.8513 28.508 15.836 28.4588 15.8216" fill="#1F264F"/>
</g>
<defs>
<clipPath id="clip0_157_7108">
<rect width="13.5629" height="16" fill="white" transform="translate(16.9653 12)"/>
</clipPath>
</defs>
</svg>
