<svg width="14" height="10" viewBox="0 0 14 10" fill="none" xmlns="http://www.w3.org/2000/svg">
<path d="M13.8605 2.1998C13.8605 2.1998 13.7238 1.23457 13.3027 0.810742C12.7695 0.25293 12.1734 0.250195 11.9 0.217383C9.94219 0.0751952 7.00273 0.0751953 7.00273 0.0751953H6.99726C6.99726 0.0751953 4.05781 0.0751952 2.1 0.217383C1.82656 0.250195 1.23047 0.25293 0.697266 0.810742C0.276172 1.23457 0.142187 2.1998 0.142187 2.1998C0.142187 2.1998 0 3.33457 0 4.4666V5.52754C0 6.65957 0.139453 7.79434 0.139453 7.79434C0.139453 7.79434 0.276172 8.75957 0.694531 9.1834C1.22773 9.74121 1.92773 9.72207 2.23945 9.78223C3.36055 9.88887 7 9.92168 7 9.92168C7 9.92168 9.94219 9.91621 11.9 9.77676C12.1734 9.74395 12.7695 9.74121 13.3027 9.1834C13.7238 8.75957 13.8605 7.79434 13.8605 7.79434C13.8605 7.79434 14 6.6623 14 5.52754V4.4666C14 3.33457 13.8605 2.1998 13.8605 2.1998ZM5.55352 6.81543V2.88066L9.33516 4.85488L5.55352 6.81543Z" fill="white"/>
</svg>
