<svg width="53" height="40" viewBox="0 0 53 40" fill="none" xmlns="http://www.w3.org/2000/svg">
<g clip-path="url(#clip0_157_7102)">
<path d="M19.8113 27.9207V26.8617C19.8113 26.4557 19.5595 26.191 19.128 26.191C18.9123 26.191 18.6786 26.2616 18.5167 26.4911C18.391 26.2969 18.2112 26.191 17.9415 26.191C17.7617 26.191 17.582 26.2439 17.4381 26.4381V26.2263H17.0605V27.9207H17.4381V26.9852C17.4381 26.6852 17.5999 26.544 17.8517 26.544C18.1033 26.544 18.2292 26.7028 18.2292 26.9852V27.9207H18.6068V26.9852C18.6068 26.6852 18.7864 26.544 19.0202 26.544C19.2719 26.544 19.3977 26.7028 19.3977 26.9852V27.9207H19.8113ZM25.4024 26.2263H24.7913V25.7145H24.4137V26.2263H24.0721V26.5616H24.4136V27.3383C24.4136 27.7266 24.5755 27.956 25.007 27.956C25.1688 27.956 25.3485 27.9031 25.4744 27.8325L25.3665 27.5147C25.2586 27.5853 25.1328 27.603 25.0429 27.603C24.8632 27.603 24.7913 27.4971 24.7913 27.3206V26.5616H25.4024V26.2263ZM28.6026 26.1909C28.3869 26.1909 28.2431 26.2969 28.1532 26.4381V26.2263H27.7756V27.9207H28.1532V26.9676C28.1532 26.6852 28.279 26.5264 28.5127 26.5264C28.5846 26.5264 28.6745 26.544 28.7464 26.5617L28.8543 26.2087C28.7824 26.191 28.6745 26.191 28.6026 26.191M23.7665 26.3676C23.5866 26.244 23.335 26.1911 23.0653 26.1911C22.6339 26.1911 22.3462 26.4029 22.3462 26.7382C22.3462 27.0207 22.5619 27.1795 22.9395 27.2324L23.1193 27.2501C23.317 27.2854 23.4249 27.3383 23.4249 27.4266C23.4249 27.5501 23.2811 27.6384 23.0293 27.6384C22.7776 27.6384 22.5799 27.5501 22.454 27.4619L22.2742 27.7443C22.472 27.8855 22.7417 27.9561 23.0113 27.9561C23.5147 27.9561 23.8024 27.7267 23.8024 27.4089C23.8024 27.1089 23.5687 26.95 23.2091 26.8971L23.0293 26.8794C22.8675 26.8617 22.7417 26.8265 22.7417 26.7206C22.7417 26.597 22.8675 26.5264 23.0653 26.5264C23.2811 26.5264 23.4968 26.6146 23.6047 26.6676L23.7665 26.3676ZM33.7984 26.1911C33.5826 26.1911 33.4388 26.297 33.3489 26.4382V26.2264H32.9713V27.9208H33.3489V26.9677C33.3489 26.6853 33.4747 26.5264 33.7084 26.5264C33.7804 26.5264 33.8703 26.5441 33.9422 26.5617L34.0501 26.2088C33.9782 26.1911 33.8703 26.1911 33.7984 26.1911ZM28.9802 27.0736C28.9802 27.5854 29.3397 27.9561 29.8971 27.9561C30.1488 27.9561 30.3285 27.9032 30.5083 27.762L30.3285 27.4619C30.1847 27.5678 30.0409 27.6207 29.8791 27.6207C29.5734 27.6207 29.3577 27.4089 29.3577 27.0736C29.3577 26.7559 29.5734 26.544 29.8791 26.5264C30.0409 26.5264 30.1847 26.5793 30.3285 26.6853L30.5083 26.3853C30.3285 26.244 30.1488 26.1911 29.8971 26.1911C29.3397 26.1911 28.9802 26.5617 28.9802 27.0736ZM32.468 27.0736V26.2264H32.0904V26.4382C31.9646 26.2794 31.7848 26.1911 31.5511 26.1911C31.0657 26.1911 30.6881 26.5617 30.6881 27.0736C30.6881 27.5854 31.0657 27.9561 31.5511 27.9561C31.8027 27.9561 31.9826 27.8679 32.0904 27.709V27.9208H32.468V27.0736ZM31.0836 27.0736C31.0836 26.7735 31.2814 26.5264 31.605 26.5264C31.9106 26.5264 32.1264 26.7559 32.1264 27.0736C32.1264 27.3736 31.9106 27.6207 31.605 27.6207C31.2814 27.603 31.0836 27.3736 31.0836 27.0736ZM26.5711 26.1911C26.0677 26.1911 25.7081 26.544 25.7081 27.0736C25.7081 27.6031 26.0676 27.9561 26.589 27.9561C26.8407 27.9561 27.0925 27.8855 27.2902 27.7267L27.1104 27.4619C26.9666 27.5678 26.7868 27.6384 26.6071 27.6384C26.3733 27.6384 26.1396 27.5325 26.0856 27.2324H27.3622V27.0913C27.3802 26.544 27.0566 26.1911 26.5711 26.1911ZM26.571 26.5087C26.8047 26.5087 26.9666 26.65 27.0025 26.9148H26.1036C26.1395 26.6853 26.3013 26.5087 26.571 26.5087ZM35.9377 27.0736V25.5557H35.5602V26.4382C35.4343 26.2794 35.2545 26.1911 35.0208 26.1911C34.5354 26.1911 34.1578 26.5617 34.1578 27.0736C34.1578 27.5854 34.5354 27.9561 35.0208 27.9561C35.2725 27.9561 35.4523 27.8679 35.5602 27.709V27.9208H35.9377V27.0736ZM34.5534 27.0736C34.5534 26.7735 34.7511 26.5264 35.0748 26.5264C35.3804 26.5264 35.5961 26.7559 35.5961 27.0736C35.5961 27.3736 35.3804 27.6207 35.0748 27.6207C34.7511 27.603 34.5534 27.3736 34.5534 27.0736ZM21.9326 27.0736V26.2264H21.555V26.4382C21.4292 26.2794 21.2494 26.1911 21.0157 26.1911C20.5303 26.1911 20.1527 26.5617 20.1527 27.0736C20.1527 27.5854 20.5303 27.9561 21.0157 27.9561C21.2674 27.9561 21.4472 27.8679 21.555 27.709V27.9208H21.9326V27.0736ZM20.5303 27.0736C20.5303 26.7735 20.728 26.5264 21.0516 26.5264C21.3572 26.5264 21.573 26.7559 21.573 27.0736C21.573 27.3736 21.3572 27.6207 21.0516 27.6207C20.728 27.603 20.5303 27.3736 20.5303 27.0736Z" fill="black"/>
<path d="M23.6406 13.3589H29.3038V23.3489H23.6406V13.3589Z" fill="#FF5F00"/>
<path d="M24.0004 18.3541C24.0004 16.3243 24.9712 14.524 26.4633 13.359C25.3668 12.5118 23.9825 12 22.4723 12C18.8945 12 16 14.8416 16 18.3541C16 21.8665 18.8945 24.7082 22.4722 24.7082C23.9824 24.7082 25.3667 24.1963 26.4633 23.3491C24.9712 22.2018 24.0004 20.3838 24.0004 18.3541Z" fill="#EB001B"/>
<path d="M36.9438 18.3541C36.9438 21.8665 34.0493 24.7082 30.4716 24.7082C28.9614 24.7082 27.5771 24.1963 26.4805 23.3491C27.9906 22.1842 28.9435 20.3838 28.9435 18.3541C28.9435 16.3243 27.9726 14.524 26.4805 13.359C27.5771 12.5118 28.9614 12 30.4716 12C34.0493 12 36.9438 14.8593 36.9438 18.3541Z" fill="#F79E1B"/>
</g>
<defs>
<clipPath id="clip0_157_7102">
<rect width="20.9655" height="16" fill="white" transform="translate(16 12)"/>
</clipPath>
</defs>
</svg>
